# xmcd
#
# Track frame offsets:
#	150
#	8978
#	20305
#	35586
#	45193
#	53944
#	67398
#	78581
#	85703
#	96854
#	112568
#	122676
#	129226
#	140361
#	147343
#	157457
#
# Disc length: 2197 seconds
#
# Revision: 0
# Processed by: cddbd v1.5.2PL0 Copyright (c) Steve Scherf et al.
# Submitted via: dBpowerAMP V4.0
#
DISCID=d3089310
DTITLE=Umpijuntti - Huh-hah
DYEAR=1900
DGENRE=
TTITLE0=Huh-hah
TTITLE1=Ei lapset
TTITLE2=Tosi mies
TTITLE3=Eestä ja takkaa
TTITLE4=Lapamato
TTITLE5=Kontilleen
TTITLE6=Arvauskeskus
TTITLE7=Täti Anneli
TTITLE8=Hikiän baarissa
TTITLE9=Kahden sydämen kitara
TTITLE10=Tilulilu pilipali
TTITLE11=Naisen luokse
TTITLE12=Saunan luona
TTITLE13=Aasilaulu
TTITLE14=Diskomummo
TTITLE15=Aitolaulu
EXTD=
EXTT0=
EXTT1=
EXTT2=
EXTT3=
EXTT4=
EXTT5=
EXTT6=
EXTT7=
EXTT8=
EXTT9=
EXTT10=
EXTT11=
EXTT12=
EXTT13=
EXTT14=
EXTT15=
PLAYORDER=
